<mxfile host="app.diagrams.net" agent="Mozilla/5.0 (Windows NT 10.0; Win64; x64) AppleWebKit/537.36 (KHTML, like Gecko) Chrome/138.0.0.0 Safari/537.36" version="28.0.7">
  <diagram name="Page-1" id="keO4CAlqJB_leOMZy6Y7">
    <mxGraphModel dx="2180" dy="2484" grid="1" gridSize="10" guides="1" tooltips="1" connect="1" arrows="1" fold="1" page="1" pageScale="1" pageWidth="827" pageHeight="1169" math="0" shadow="0">
      <root>
        <mxCell id="0" />
        <mxCell id="1" parent="0" />
        <mxCell id="Ygw-mNNWWd69eiGK4k19-1" value="User&lt;div&gt;&lt;br&gt;&lt;/div&gt;" style="shape=umlActor;verticalLabelPosition=bottom;verticalAlign=top;html=1;" vertex="1" parent="1">
          <mxGeometry x="40" y="40" width="70" height="80" as="geometry" />
        </mxCell>
        <mxCell id="Ygw-mNNWWd69eiGK4k19-2" value="&lt;div&gt;Teacher&lt;/div&gt;&lt;div&gt;&lt;br&gt;&lt;/div&gt;" style="shape=umlActor;verticalLabelPosition=bottom;verticalAlign=top;html=1;" vertex="1" parent="1">
          <mxGeometry x="20" y="300" width="70" height="80" as="geometry" />
        </mxCell>
        <mxCell id="Ygw-mNNWWd69eiGK4k19-3" value="&lt;div&gt;Administrator&lt;/div&gt;&lt;div&gt;&lt;br&gt;&lt;/div&gt;" style="shape=umlActor;verticalLabelPosition=bottom;verticalAlign=top;html=1;" vertex="1" parent="1">
          <mxGeometry x="40" y="560" width="70" height="80" as="geometry" />
        </mxCell>
        <mxCell id="Ygw-mNNWWd69eiGK4k19-4" value="" style="whiteSpace=wrap;html=1;aspect=fixed;" vertex="1" parent="1">
          <mxGeometry x="210" y="-170" width="1340" height="1340" as="geometry" />
        </mxCell>
        <mxCell id="Ygw-mNNWWd69eiGK4k19-6" value="Authentification" style="ellipse;whiteSpace=wrap;html=1;" vertex="1" parent="1">
          <mxGeometry x="670" y="380" width="120" height="40" as="geometry" />
        </mxCell>
        <mxCell id="Ygw-mNNWWd69eiGK4k19-7" value="login" style="ellipse;whiteSpace=wrap;html=1;" vertex="1" parent="1">
          <mxGeometry x="947" y="342.5" width="120" height="30" as="geometry" />
        </mxCell>
        <mxCell id="Ygw-mNNWWd69eiGK4k19-8" value="make some resume" style="ellipse;whiteSpace=wrap;html=1;" vertex="1" parent="1">
          <mxGeometry x="880" y="160" width="120" height="40" as="geometry" />
        </mxCell>
        <mxCell id="Ygw-mNNWWd69eiGK4k19-9" value="generate summaries" style="ellipse;whiteSpace=wrap;html=1;" vertex="1" parent="1">
          <mxGeometry x="827" y="230" width="124" height="30" as="geometry" />
        </mxCell>
        <mxCell id="Ygw-mNNWWd69eiGK4k19-10" value="upload files" style="ellipse;whiteSpace=wrap;html=1;" vertex="1" parent="1">
          <mxGeometry x="620" y="95" width="120" height="40" as="geometry" />
        </mxCell>
        <mxCell id="Ygw-mNNWWd69eiGK4k19-11" value="sign up" style="ellipse;whiteSpace=wrap;html=1;" vertex="1" parent="1">
          <mxGeometry x="880" y="450" width="120" height="30" as="geometry" />
        </mxCell>
        <mxCell id="Ygw-mNNWWd69eiGK4k19-12" value="chat questions" style="ellipse;whiteSpace=wrap;html=1;" vertex="1" parent="1">
          <mxGeometry x="705" y="250" width="120" height="30" as="geometry" />
        </mxCell>
        <mxCell id="Ygw-mNNWWd69eiGK4k19-13" value="send files&lt;span style=&quot;color: rgba(0, 0, 0, 0); font-family: monospace; font-size: 0px; text-align: start; text-wrap-mode: nowrap;&quot;&gt;%3CmxGraphModel%3E%3Croot%3E%3CmxCell%20id%3D%220%22%2F%3E%3CmxCell%20id%3D%221%22%20parent%3D%220%22%2F%3E%3CmxCell%20id%3D%222%22%20value%3D%22%22%20style%3D%22ellipse%3BwhiteSpace%3Dwrap%3Bhtml%3D1%3B%22%20vertex%3D%221%22%20parent%3D%221%22%3E%3CmxGeometry%20x%3D%22270%22%20y%3D%2270%22%20width%3D%22120%22%20height%3D%2260%22%20as%3D%22geometry%22%2F%3E%3C%2FmxCell%3E%3C%2Froot%3E%3C%2FmxGraphModel%3E&lt;/span&gt;" style="ellipse;whiteSpace=wrap;html=1;" vertex="1" parent="1">
          <mxGeometry x="650" y="630" width="120" height="30" as="geometry" />
        </mxCell>
        <mxCell id="Ygw-mNNWWd69eiGK4k19-14" value="consult answers to questions/MCQs" style="ellipse;whiteSpace=wrap;html=1;" vertex="1" parent="1">
          <mxGeometry x="700" y="500" width="120" height="40" as="geometry" />
        </mxCell>
        <mxCell id="Ygw-mNNWWd69eiGK4k19-15" value="make summaries" style="ellipse;whiteSpace=wrap;html=1;" vertex="1" parent="1">
          <mxGeometry x="880" y="80" width="120" height="40" as="geometry" />
        </mxCell>
        <mxCell id="Ygw-mNNWWd69eiGK4k19-16" value="tract progress" style="ellipse;whiteSpace=wrap;html=1;" vertex="1" parent="1">
          <mxGeometry x="680" y="570" width="120" height="30" as="geometry" />
        </mxCell>
        <mxCell id="Ygw-mNNWWd69eiGK4k19-17" value="accept invitation to enter into groups" style="ellipse;whiteSpace=wrap;html=1;" vertex="1" parent="1">
          <mxGeometry x="522" y="-45" width="120" height="40" as="geometry" />
        </mxCell>
        <mxCell id="Ygw-mNNWWd69eiGK4k19-18" value="visit past chats with the app" style="ellipse;whiteSpace=wrap;html=1;" vertex="1" parent="1">
          <mxGeometry x="550" y="210" width="120" height="40" as="geometry" />
        </mxCell>
        <mxCell id="Ygw-mNNWWd69eiGK4k19-23" value="Generate personal recommendation" style="ellipse;whiteSpace=wrap;html=1;" vertex="1" parent="1">
          <mxGeometry x="880" y="-5" width="120" height="45" as="geometry" />
        </mxCell>
        <mxCell id="Ygw-mNNWWd69eiGK4k19-31" value="" style="endArrow=none;html=1;rounded=0;entryX=0.5;entryY=0;entryDx=0;entryDy=0;" edge="1" parent="1" source="Ygw-mNNWWd69eiGK4k19-1" target="Ygw-mNNWWd69eiGK4k19-6">
          <mxGeometry relative="1" as="geometry">
            <mxPoint x="180" y="69.5" as="sourcePoint" />
            <mxPoint x="340" y="70" as="targetPoint" />
          </mxGeometry>
        </mxCell>
        <mxCell id="Ygw-mNNWWd69eiGK4k19-32" value="" style="endArrow=none;html=1;rounded=0;entryX=0;entryY=0;entryDx=0;entryDy=0;" edge="1" parent="1" source="Ygw-mNNWWd69eiGK4k19-1" target="Ygw-mNNWWd69eiGK4k19-10">
          <mxGeometry relative="1" as="geometry">
            <mxPoint x="110" y="100" as="sourcePoint" />
            <mxPoint x="390" y="110" as="targetPoint" />
            <Array as="points">
              <mxPoint x="230" y="120" />
            </Array>
          </mxGeometry>
        </mxCell>
        <mxCell id="Ygw-mNNWWd69eiGK4k19-35" value="" style="endArrow=none;html=1;rounded=0;exitX=0.957;exitY=0.913;exitDx=0;exitDy=0;exitPerimeter=0;entryX=0;entryY=0;entryDx=0;entryDy=0;" edge="1" parent="1" source="Ygw-mNNWWd69eiGK4k19-1" target="Ygw-mNNWWd69eiGK4k19-18">
          <mxGeometry relative="1" as="geometry">
            <mxPoint x="160" y="150" as="sourcePoint" />
            <mxPoint x="220" y="140" as="targetPoint" />
          </mxGeometry>
        </mxCell>
        <mxCell id="Ygw-mNNWWd69eiGK4k19-54" value="Extends" style="endArrow=block;endSize=16;endFill=0;html=1;rounded=0;exitX=0.633;exitY=0.983;exitDx=0;exitDy=0;exitPerimeter=0;" edge="1" parent="1" source="Ygw-mNNWWd69eiGK4k19-6" target="Ygw-mNNWWd69eiGK4k19-11">
          <mxGeometry width="160" relative="1" as="geometry">
            <mxPoint x="470" y="110" as="sourcePoint" />
            <mxPoint x="550" y="110" as="targetPoint" />
          </mxGeometry>
        </mxCell>
        <mxCell id="Ygw-mNNWWd69eiGK4k19-55" value="Extends" style="endArrow=block;endSize=16;endFill=0;html=1;rounded=0;exitX=0.967;exitY=0.4;exitDx=0;exitDy=0;exitPerimeter=0;entryX=0;entryY=0.5;entryDx=0;entryDy=0;" edge="1" parent="1" source="Ygw-mNNWWd69eiGK4k19-6" target="Ygw-mNNWWd69eiGK4k19-7">
          <mxGeometry x="0.1597" y="-1" width="160" relative="1" as="geometry">
            <mxPoint x="520" y="50" as="sourcePoint" />
            <mxPoint x="570" y="30" as="targetPoint" />
            <mxPoint y="-1" as="offset" />
          </mxGeometry>
        </mxCell>
        <mxCell id="Ygw-mNNWWd69eiGK4k19-56" value="Extends" style="endArrow=block;endSize=16;endFill=0;html=1;rounded=0;exitX=0.575;exitY=1.05;exitDx=0;exitDy=0;exitPerimeter=0;entryX=0.575;entryY=0.033;entryDx=0;entryDy=0;entryPerimeter=0;" edge="1" parent="1" source="Ygw-mNNWWd69eiGK4k19-10" target="Ygw-mNNWWd69eiGK4k19-9">
          <mxGeometry x="0.1597" y="-1" width="160" relative="1" as="geometry">
            <mxPoint x="430" y="210" as="sourcePoint" />
            <mxPoint x="460" y="270" as="targetPoint" />
            <mxPoint y="-1" as="offset" />
          </mxGeometry>
        </mxCell>
        <mxCell id="Ygw-mNNWWd69eiGK4k19-59" value="Extends" style="endArrow=block;endSize=16;endFill=0;html=1;rounded=0;exitX=1;exitY=1;exitDx=0;exitDy=0;entryX=0.342;entryY=0.017;entryDx=0;entryDy=0;entryPerimeter=0;" edge="1" parent="1" source="Ygw-mNNWWd69eiGK4k19-10" target="Ygw-mNNWWd69eiGK4k19-8">
          <mxGeometry x="0.1597" y="-1" width="160" relative="1" as="geometry">
            <mxPoint x="510" y="210" as="sourcePoint" />
            <mxPoint x="558" y="211" as="targetPoint" />
            <mxPoint y="-1" as="offset" />
          </mxGeometry>
        </mxCell>
        <mxCell id="Ygw-mNNWWd69eiGK4k19-61" value="Extends" style="endArrow=block;endSize=16;endFill=0;html=1;rounded=0;" edge="1" parent="1" source="Ygw-mNNWWd69eiGK4k19-10" target="Ygw-mNNWWd69eiGK4k19-12">
          <mxGeometry x="0.1597" y="-1" width="160" relative="1" as="geometry">
            <mxPoint x="330" y="220" as="sourcePoint" />
            <mxPoint x="380" y="230" as="targetPoint" />
            <mxPoint y="-1" as="offset" />
          </mxGeometry>
        </mxCell>
        <mxCell id="Ygw-mNNWWd69eiGK4k19-62" value="" style="endArrow=none;html=1;rounded=0;entryX=0.383;entryY=0.067;entryDx=0;entryDy=0;entryPerimeter=0;" edge="1" parent="1" target="Ygw-mNNWWd69eiGK4k19-13">
          <mxGeometry relative="1" as="geometry">
            <mxPoint x="110" y="340" as="sourcePoint" />
            <mxPoint x="250" y="360" as="targetPoint" />
          </mxGeometry>
        </mxCell>
        <mxCell id="Ygw-mNNWWd69eiGK4k19-64" value="" style="endArrow=none;html=1;rounded=0;entryX=0.058;entryY=0.35;entryDx=0;entryDy=0;entryPerimeter=0;" edge="1" parent="1" target="Ygw-mNNWWd69eiGK4k19-14">
          <mxGeometry relative="1" as="geometry">
            <mxPoint x="100" y="320" as="sourcePoint" />
            <mxPoint x="290" y="376" as="targetPoint" />
          </mxGeometry>
        </mxCell>
        <mxCell id="Ygw-mNNWWd69eiGK4k19-66" value="" style="endArrow=none;html=1;rounded=0;entryX=0.21;entryY=0.155;entryDx=0;entryDy=0;entryPerimeter=0;" edge="1" parent="1" target="Ygw-mNNWWd69eiGK4k19-16">
          <mxGeometry relative="1" as="geometry">
            <mxPoint x="100" y="330" as="sourcePoint" />
            <mxPoint x="340" y="400" as="targetPoint" />
          </mxGeometry>
        </mxCell>
        <mxCell id="Ygw-mNNWWd69eiGK4k19-70" value="" style="endArrow=none;html=1;rounded=0;entryX=0;entryY=1;entryDx=0;entryDy=0;" edge="1" parent="1" source="Ygw-mNNWWd69eiGK4k19-1" target="Ygw-mNNWWd69eiGK4k19-17">
          <mxGeometry relative="1" as="geometry">
            <mxPoint x="220" y="-10" as="sourcePoint" />
            <mxPoint x="270" y="50" as="targetPoint" />
          </mxGeometry>
        </mxCell>
        <mxCell id="Ygw-mNNWWd69eiGK4k19-71" value="" style="endArrow=none;html=1;rounded=0;entryX=0.5;entryY=0;entryDx=0;entryDy=0;" edge="1" parent="1" target="Ygw-mNNWWd69eiGK4k19-13">
          <mxGeometry relative="1" as="geometry">
            <mxPoint x="110" y="130" as="sourcePoint" />
            <mxPoint x="330" y="390" as="targetPoint" />
          </mxGeometry>
        </mxCell>
        <mxCell id="Ygw-mNNWWd69eiGK4k19-72" value="invite memebers" style="ellipse;whiteSpace=wrap;html=1;" vertex="1" parent="1">
          <mxGeometry x="580" y="670" width="140" height="30" as="geometry" />
        </mxCell>
        <mxCell id="Ygw-mNNWWd69eiGK4k19-73" value="" style="endArrow=none;html=1;rounded=0;entryX=0;entryY=0.5;entryDx=0;entryDy=0;" edge="1" parent="1" target="Ygw-mNNWWd69eiGK4k19-72">
          <mxGeometry relative="1" as="geometry">
            <mxPoint x="90" y="360" as="sourcePoint" />
            <mxPoint x="310" y="432" as="targetPoint" />
          </mxGeometry>
        </mxCell>
        <mxCell id="Ygw-mNNWWd69eiGK4k19-76" value="Manage users" style="ellipse;whiteSpace=wrap;html=1;" vertex="1" parent="1">
          <mxGeometry x="560" y="710" width="140" height="30" as="geometry" />
        </mxCell>
        <mxCell id="Ygw-mNNWWd69eiGK4k19-78" value="supervise AI costs" style="ellipse;whiteSpace=wrap;html=1;" vertex="1" parent="1">
          <mxGeometry x="565" y="750" width="140" height="30" as="geometry" />
        </mxCell>
        <mxCell id="Ygw-mNNWWd69eiGK4k19-79" value="Manage system&#39;s parameters" style="ellipse;whiteSpace=wrap;html=1;" vertex="1" parent="1">
          <mxGeometry x="550" y="800" width="140" height="30" as="geometry" />
        </mxCell>
        <mxCell id="Ygw-mNNWWd69eiGK4k19-81" value="" style="endArrow=none;html=1;rounded=0;entryX=0;entryY=0.5;entryDx=0;entryDy=0;" edge="1" parent="1" target="Ygw-mNNWWd69eiGK4k19-6">
          <mxGeometry relative="1" as="geometry">
            <mxPoint x="100" y="310" as="sourcePoint" />
            <mxPoint x="420" y="90" as="targetPoint" />
            <Array as="points">
              <mxPoint x="240" y="310" />
            </Array>
          </mxGeometry>
        </mxCell>
        <mxCell id="Ygw-mNNWWd69eiGK4k19-84" value="" style="endArrow=none;html=1;rounded=0;entryX=0.077;entryY=0.762;entryDx=0;entryDy=0;entryPerimeter=0;" edge="1" parent="1" target="Ygw-mNNWWd69eiGK4k19-10">
          <mxGeometry relative="1" as="geometry">
            <mxPoint x="110" y="310" as="sourcePoint" />
            <mxPoint x="440" y="210" as="targetPoint" />
          </mxGeometry>
        </mxCell>
        <mxCell id="Ygw-mNNWWd69eiGK4k19-87" value="" style="endArrow=none;html=1;rounded=0;entryX=0;entryY=0.5;entryDx=0;entryDy=0;" edge="1" parent="1" target="Ygw-mNNWWd69eiGK4k19-76">
          <mxGeometry relative="1" as="geometry">
            <mxPoint x="120" y="570" as="sourcePoint" />
            <mxPoint x="210" y="590" as="targetPoint" />
          </mxGeometry>
        </mxCell>
        <mxCell id="Ygw-mNNWWd69eiGK4k19-88" value="" style="endArrow=none;html=1;rounded=0;entryX=0;entryY=0.5;entryDx=0;entryDy=0;" edge="1" parent="1" target="Ygw-mNNWWd69eiGK4k19-78">
          <mxGeometry relative="1" as="geometry">
            <mxPoint x="120" y="590" as="sourcePoint" />
            <mxPoint x="300" y="630" as="targetPoint" />
          </mxGeometry>
        </mxCell>
        <mxCell id="Ygw-mNNWWd69eiGK4k19-90" value="" style="endArrow=none;html=1;rounded=0;entryX=0;entryY=0.5;entryDx=0;entryDy=0;" edge="1" parent="1" target="Ygw-mNNWWd69eiGK4k19-79">
          <mxGeometry relative="1" as="geometry">
            <mxPoint x="120" y="600" as="sourcePoint" />
            <mxPoint x="370" y="670" as="targetPoint" />
            <Array as="points">
              <mxPoint x="210" y="655" />
            </Array>
          </mxGeometry>
        </mxCell>
        <mxCell id="Ygw-mNNWWd69eiGK4k19-92" value="Regulate app utilisation" style="ellipse;whiteSpace=wrap;html=1;" vertex="1" parent="1">
          <mxGeometry x="512" y="860" width="140" height="30" as="geometry" />
        </mxCell>
        <mxCell id="Ygw-mNNWWd69eiGK4k19-93" value="" style="endArrow=none;html=1;rounded=0;entryX=0;entryY=0;entryDx=0;entryDy=0;" edge="1" parent="1" source="Ygw-mNNWWd69eiGK4k19-3" target="Ygw-mNNWWd69eiGK4k19-92">
          <mxGeometry relative="1" as="geometry">
            <mxPoint x="120" y="650" as="sourcePoint" />
            <mxPoint x="450" y="720" as="targetPoint" />
            <Array as="points">
              <mxPoint x="210" y="675" />
            </Array>
          </mxGeometry>
        </mxCell>
        <mxCell id="Ygw-mNNWWd69eiGK4k19-94" value="Extends" style="endArrow=block;endSize=16;endFill=0;html=1;rounded=0;exitX=1;exitY=0;exitDx=0;exitDy=0;entryX=0;entryY=0.5;entryDx=0;entryDy=0;" edge="1" parent="1" source="Ygw-mNNWWd69eiGK4k19-10" target="Ygw-mNNWWd69eiGK4k19-23">
          <mxGeometry x="0.1095" y="-2" width="160" relative="1" as="geometry">
            <mxPoint x="565" y="161.91" as="sourcePoint" />
            <mxPoint x="720" y="162" as="targetPoint" />
            <mxPoint as="offset" />
          </mxGeometry>
        </mxCell>
        <mxCell id="Ygw-mNNWWd69eiGK4k19-95" value="Extends" style="endArrow=block;endSize=16;endFill=0;html=1;rounded=0;exitX=1;exitY=0.5;exitDx=0;exitDy=0;entryX=0.083;entryY=0.25;entryDx=0;entryDy=0;entryPerimeter=0;" edge="1" parent="1" source="Ygw-mNNWWd69eiGK4k19-10" target="Ygw-mNNWWd69eiGK4k19-15">
          <mxGeometry width="160" relative="1" as="geometry">
            <mxPoint x="590" y="200" as="sourcePoint" />
            <mxPoint x="720" y="210" as="targetPoint" />
          </mxGeometry>
        </mxCell>
        <mxCell id="Ygw-mNNWWd69eiGK4k19-96" style="edgeStyle=orthogonalEdgeStyle;rounded=0;orthogonalLoop=1;jettySize=auto;html=1;exitX=0.5;exitY=1;exitDx=0;exitDy=0;" edge="1" parent="1" source="Ygw-mNNWWd69eiGK4k19-12" target="Ygw-mNNWWd69eiGK4k19-12">
          <mxGeometry relative="1" as="geometry" />
        </mxCell>
        <mxCell id="Ygw-mNNWWd69eiGK4k19-97" value="" style="endArrow=none;html=1;rounded=0;entryX=0;entryY=1;entryDx=0;entryDy=0;" edge="1" parent="1" target="Ygw-mNNWWd69eiGK4k19-6">
          <mxGeometry relative="1" as="geometry">
            <mxPoint x="110" y="560" as="sourcePoint" />
            <mxPoint x="510" y="320" as="targetPoint" />
          </mxGeometry>
        </mxCell>
      </root>
    </mxGraphModel>
  </diagram>
</mxfile>
